<svg t="1777127355809" class="icon" viewBox="0 0 1073 1024" version="1.1" xmlns="http://www.w3.org/2000/svg" p-id="2240" width="200" height="200"><path d="M47.54929 770.233073C-35.456768 629.527484-1.560325 419.655598 86.118582 289.197771 98.389891 270.449486 124.119006 265.199642 142.810403 277.804145 151.5466 283.947926 157.430326 292.741009 159.746434 302.102962L160.315303 302.102962C162.095049 310.327176 163.842288 316.739138 165.272587 323.207987 174.366358 293.610566 186.60516 264.573886 201.818332 237.040645 249.148201 154.359655 325.124668 85.770353 406.35098 54.116878 427.984241 45.917043 451.364741 56.497999 459.263888 77.578645 463.63605 88.427782 462.473932 99.870168 458.670639 109.23212 450.771492 127.980405 443.758155 146.1842 437.638754 164.339236 498.125741 109.23212 574.662951 61.178975 652.955526 31.581554 815.448783-29.72623 1000.103536-11.546814 1069.952476 173.725568 1078.12793 195.131281 1067.3113 218.88561 1046.279414 227.085444L1041.882873 228.247562C904.281681 264.573886 852.55527 354.861462 804.038904 440.191755 736.530452 559.207197 673.426669 670.299111 447.854009 666.780252 463.067181 673.517282 482.920696 681.123868 508.048435 689.047395 529.949877 695.784425 541.928625 718.945504 535.532916 740.643779 531.997804 751.492916 524.123037 759.985312 514.769212 765.259536 411.015703 823.893637 229.302813 865.526694 112.416565 819.505222 95.748715 842.942609 70.90541 894.238305 88.142129 974.261866L88.142129 974.261866 201.818332 974.261866C215.544319 974.261866 226.36095 985.111004 226.36095 999.178312 226.36095 1012.652371 215.544319 1023.802196 201.818332 1023.802196L79.674113 1023.802196 55.724744 1023.802196 52.222139 1023.802196C31.775376 1025.85825 12.173788 1012.083503 7.801627 991.254785-14.985625 883.681729 20.641804 808.331017 47.54929 770.233073L47.54929 770.233073 47.54929 770.233073ZM348.797729 1023.802196 348.797729 1023.802196 1047.555305 1023.802196C1061.281292 1023.802196 1072.683045 1012.652371 1072.683045 999.178312 1072.683045 985.111004 1061.281292 974.261866 1047.555305 974.261866L348.797729 974.261866C335.047362 974.261866 323.962551 985.111004 323.962551 999.178312 323.962551 1012.652371 335.047362 1023.802196 348.797729 1023.802196L348.797729 1023.802196 348.797729 1023.802196Z" p-id="2241" fill="#337a87"></path></svg>